<svg xmlns="http://www.w3.org/2000/svg" width="1367.765" height="62.186" viewBox="0 0 1367.765 62.186"><defs><style>.a{fill:#fff;}</style></defs><path class="a" d="M0,0V49.52s38.246,28.5,75.054,0c33.341-25.815,63.851-4.863,69.3-.688v.125s38.246,28.5,75.054,0,70.165,0,70.165,0v-.333a73.854,73.854,0,0,0,14.867,7.569c14.472,5.765,37.816,9.976,60.612-7.674,20.963-16.23,40.8-13.974,54-9.024a61.086,61.086,0,0,1,14.01,7.838v.124a70.3,70.3,0,0,0,15.716,8.169c14.471,5.768,37.821,9.986,60.624-7.669,20.96-16.229,40.8-13.974,54-9.024a58.214,58.214,0,0,1,14.874,8.525V47.3A74.121,74.121,0,0,0,609.93,59.147c12.955,1.72,28.519-.27,43.836-12.128,14.7-11.383,28.857-13.672,40.551-12.317a61.2,61.2,0,0,1,27.751,11.5v.125a73.581,73.581,0,0,0,32.209,12.252c12.958,1.723,28.523-.265,43.846-12.127,14.685-11.371,28.823-13.668,40.511-12.322a60.541,60.541,0,0,1,28.654,12.2V46a73.859,73.859,0,0,0,14.817,7.55c14.469,5.775,37.841,10.014,60.661-7.654,20.971-16.237,40.824-13.972,54.023-9.017a61.037,61.037,0,0,1,13.991,7.83v.125a70.333,70.333,0,0,0,15.734,8.176c14.473,5.763,37.813,9.972,60.607-7.676,20.963-16.23,40.809-13.973,54.008-9.022A58.2,58.2,0,0,1,1156,44.832v-.509c.844.628,1.288,1.009,1.288,1.009V45c5.863,3.973,40.624,25.384,74.19-.6,10.248-7.935,20.232-11.451,29.3-12.395h10.544a60.944,60.944,0,0,1,29.46,11.708v.124s28.745,31,65.552,2.5c2.688-2.08.937-2.358,0-2.5-.352-.108,0-6.165,0-6.165s-.333-.666,0-7c-.667-6,0-17,0-17l-.334.027V0Z" transform="translate(1367.765 62.186) rotate(180)"/></svg>